USFL
nRows=116
nColumns=2
inDegrees=yes
endheader
time	med_gas_r	
4.0625	 47.300837	
4.125	 47.201050	
4.1875	 47.220812	
4.25	 47.232244	
4.3125	 47.409981	
4.375	 47.399561	
4.4375	 47.353859	
4.5	 47.397516	
4.5625	 47.345799	
4.625	 47.379896	
4.6875	 47.284408	
4.75	 47.272210	
4.8125	 47.274882	
4.875	 47.416031	
4.9375	 47.428021	
5	 47.428834	
5.0625	 47.427369	
5.125	 47.426794	
5.1875	 47.455284	
5.25	 47.390048	
5.3125	 47.387963	
5.375	 47.376928	
5.4375	 47.487264	
5.5	 47.380484	
5.5625	 47.428387	
5.625	 47.573887	
5.6875	 47.517377	
5.75	 47.519382	
5.8125	 47.697320	
5.875	 47.705010	
5.9375	 48.044082	
6	 47.187884	
6.0625	 47.385461	
6.125	 46.911274	
6.1875	 47.274464	
6.25	 43.477167	
6.3125	 40.537824	
6.375	 34.827988	
6.4375	 34.080763	
6.5	 33.743026	
6.5625	 33.572451	
6.625	 33.515824	
6.6875	 33.626721	
6.75	 33.358585	
6.8125	 32.937338	
6.875	 33.150470	
6.9375	 33.809987	
7	 34.272037	
7.0625	 33.700807	
7.125	 33.177725	
7.1875	 32.278152	
7.25	 31.528454	
7.3125	 30.853028	
7.375	 30.344509	
7.4375	 30.120181	
7.5	 30.443905	
7.5625	 30.768253	
7.625	 30.874853	
7.6875	 30.477831	
7.75	 30.416857	
7.8125	 30.437984	
7.875	 30.436416	
7.9375	 30.615262	
8	 30.539381	
8.0625	 31.114517	
8.125	 31.678499	
8.1875	 31.924189	
8.25	 31.705570	
8.3125	 31.363367	
8.375	 30.926430	
8.4375	 30.934316	
8.5	 30.891643	
8.5625	 30.890373	
8.625	 30.616634	
8.6875	 31.257366	
8.75	 31.476942	
8.8125	 31.215876	
8.875	 31.273403	
8.9375	 30.931541	
9	 31.269233	
9.0625	 31.836201	
9.125	 31.562119	
9.1875	 31.976790	
9.25	 32.419050	
9.3125	 32.325615	
9.375	 32.325617	
9.4375	 32.468849	
9.5	 32.734542	
9.5625	 32.895350	
9.625	 32.845745	
9.6875	 32.809912	
9.75	 33.206434	
9.8125	 33.493710	
9.875	 33.438429	
9.9375	 33.500849	
10	 33.471581	
10.0625	 33.668292	
10.125	 33.650981	
10.1875	 33.725822	
10.25	 33.626394	
10.3125	 33.491365	
10.375	 34.566397	
10.4375	 35.416750	
10.5	 35.870383	
10.5625	 35.802709	
10.625	 43.534203	
10.6875	 47.899069	
10.75	 46.447098	
10.8125	 47.160031	
10.875	 45.909028	
10.9375	 47.875322	
11	 47.768497	
11.0625	 47.465744	
11.125	 47.195183	
11.1875	 47.511148	
11.25	 47.651450	
